G04 #@! TF.FileFunction,Copper,L2,Bot,Signal*
%FSLAX46Y46*%
G04 Gerber Fmt 4.6, Leading zero omitted, Abs format (unit mm)*
G04 Created by KiCad (PCBNEW 4.0.7) date 08/13/18 20:30:48*
%MOMM*%
%LPD*%
G01*
G04 APERTURE LIST*
%ADD10C,0.100000*%
%ADD11R,1.700000X1.700000*%
%ADD12O,1.700000X1.700000*%
%ADD13C,3.048000*%
%ADD14C,0.800000*%
%ADD15C,0.500000*%
%ADD16C,0.250000*%
%ADD17C,0.254000*%
G04 APERTURE END LIST*
D10*
D11*
X117856000Y-106299000D03*
D12*
X117856000Y-103759000D03*
D13*
X182371000Y-105029000D03*
X174751000Y-105029000D03*
X147321000Y-105029000D03*
X139701000Y-105029000D03*
D14*
X122174000Y-108204000D03*
X121666000Y-105918000D03*
X122809000Y-103759000D03*
X127000000Y-102870000D03*
X121666000Y-107188000D03*
X129159000Y-105029000D03*
X120396000Y-109093000D03*
X125984000Y-109093000D03*
D15*
X121158000Y-108204000D02*
X122174000Y-108204000D01*
D16*
X121666000Y-107188000D02*
X123952000Y-107188000D01*
X123952000Y-107188000D02*
X126111000Y-105029000D01*
X126111000Y-105029000D02*
X129159000Y-105029000D01*
D15*
X125984000Y-109093000D02*
X120396000Y-109093000D01*
D17*
G36*
X183948000Y-103700441D02*
X183902307Y-103677298D01*
X182550605Y-105029000D01*
X183902307Y-106380702D01*
X183948000Y-106357559D01*
X183948000Y-109272000D01*
X127018844Y-109272000D01*
X127019179Y-108888029D01*
X126861942Y-108507485D01*
X126571046Y-108216081D01*
X126190777Y-108058180D01*
X125779029Y-108057821D01*
X125415567Y-108208000D01*
X121907707Y-108208000D01*
X122251515Y-108065942D01*
X122369663Y-107948000D01*
X123952000Y-107948000D01*
X124242839Y-107890148D01*
X124489401Y-107725401D01*
X126425802Y-105789000D01*
X128455239Y-105789000D01*
X128571954Y-105905919D01*
X128952223Y-106063820D01*
X129363971Y-106064179D01*
X129744515Y-105906942D01*
X130035919Y-105616046D01*
X130102140Y-105456567D01*
X137541626Y-105456567D01*
X137869622Y-106250377D01*
X138476428Y-106858244D01*
X139269664Y-107187624D01*
X140128567Y-107188374D01*
X140922377Y-106860378D01*
X141530244Y-106253572D01*
X141859624Y-105460336D01*
X141859627Y-105456567D01*
X145161626Y-105456567D01*
X145489622Y-106250377D01*
X146096428Y-106858244D01*
X146889664Y-107187624D01*
X147748567Y-107188374D01*
X148542377Y-106860378D01*
X148842972Y-106560307D01*
X173399298Y-106560307D01*
X173562011Y-106881568D01*
X174361464Y-107195556D01*
X175220221Y-107179706D01*
X175939989Y-106881568D01*
X176102702Y-106560307D01*
X181019298Y-106560307D01*
X181182011Y-106881568D01*
X181981464Y-107195556D01*
X182840221Y-107179706D01*
X183559989Y-106881568D01*
X183722702Y-106560307D01*
X182371000Y-105208605D01*
X181019298Y-106560307D01*
X176102702Y-106560307D01*
X174751000Y-105208605D01*
X173399298Y-106560307D01*
X148842972Y-106560307D01*
X149150244Y-106253572D01*
X149479624Y-105460336D01*
X149480340Y-104639464D01*
X172584444Y-104639464D01*
X172600294Y-105498221D01*
X172898432Y-106217989D01*
X173219693Y-106380702D01*
X174571395Y-105029000D01*
X174930605Y-105029000D01*
X176282307Y-106380702D01*
X176603568Y-106217989D01*
X176917556Y-105418536D01*
X176903177Y-104639464D01*
X180204444Y-104639464D01*
X180220294Y-105498221D01*
X180518432Y-106217989D01*
X180839693Y-106380702D01*
X182191395Y-105029000D01*
X180839693Y-103677298D01*
X180518432Y-103840011D01*
X180204444Y-104639464D01*
X176903177Y-104639464D01*
X176901706Y-104559779D01*
X176603568Y-103840011D01*
X176282307Y-103677298D01*
X174930605Y-105029000D01*
X174571395Y-105029000D01*
X173219693Y-103677298D01*
X172898432Y-103840011D01*
X172584444Y-104639464D01*
X149480340Y-104639464D01*
X149480374Y-104601433D01*
X149152378Y-103807623D01*
X148842989Y-103497693D01*
X173399298Y-103497693D01*
X174751000Y-104849395D01*
X176102702Y-103497693D01*
X181019298Y-103497693D01*
X182371000Y-104849395D01*
X183722702Y-103497693D01*
X183559989Y-103176432D01*
X182760536Y-102862444D01*
X181901779Y-102878294D01*
X181182011Y-103176432D01*
X181019298Y-103497693D01*
X176102702Y-103497693D01*
X175939989Y-103176432D01*
X175140536Y-102862444D01*
X174281779Y-102878294D01*
X173562011Y-103176432D01*
X173399298Y-103497693D01*
X148842989Y-103497693D01*
X148545572Y-103199756D01*
X147752336Y-102870376D01*
X146893433Y-102869626D01*
X146099623Y-103197622D01*
X145491756Y-103804428D01*
X145162376Y-104597664D01*
X145161626Y-105456567D01*
X141859627Y-105456567D01*
X141860374Y-104601433D01*
X141532378Y-103807623D01*
X140925572Y-103199756D01*
X140132336Y-102870376D01*
X139273433Y-102869626D01*
X138479623Y-103197622D01*
X137871756Y-103804428D01*
X137542376Y-104597664D01*
X137541626Y-105456567D01*
X130102140Y-105456567D01*
X130193820Y-105235777D01*
X130194179Y-104824029D01*
X130036942Y-104443485D01*
X129746046Y-104152081D01*
X129365777Y-103994180D01*
X128954029Y-103993821D01*
X128573485Y-104151058D01*
X128455337Y-104269000D01*
X126111000Y-104269000D01*
X125820161Y-104326852D01*
X125573599Y-104491599D01*
X123637198Y-106428000D01*
X122369761Y-106428000D01*
X122253046Y-106311081D01*
X121872777Y-106153180D01*
X121461029Y-106152821D01*
X121080485Y-106310058D01*
X120789081Y-106600954D01*
X120631180Y-106981223D01*
X120630821Y-107392971D01*
X120788058Y-107773515D01*
X121078954Y-108064919D01*
X121423532Y-108208000D01*
X120963585Y-108208000D01*
X120602777Y-108058180D01*
X120191029Y-108057821D01*
X119810485Y-108215058D01*
X119519081Y-108505954D01*
X119361180Y-108886223D01*
X119360844Y-109272000D01*
X116534000Y-109272000D01*
X116534000Y-107588149D01*
X116541910Y-107600441D01*
X116754110Y-107745431D01*
X117006000Y-107796440D01*
X118706000Y-107796440D01*
X118941317Y-107752162D01*
X119157441Y-107613090D01*
X119302431Y-107400890D01*
X119353440Y-107149000D01*
X119353440Y-105449000D01*
X119309162Y-105213683D01*
X119170090Y-104997559D01*
X118957890Y-104852569D01*
X118849893Y-104830699D01*
X119127645Y-104525924D01*
X119297476Y-104115890D01*
X119176155Y-103886000D01*
X117983000Y-103886000D01*
X117983000Y-103906000D01*
X117729000Y-103906000D01*
X117729000Y-103886000D01*
X117709000Y-103886000D01*
X117709000Y-103632000D01*
X117729000Y-103632000D01*
X117729000Y-102438181D01*
X117983000Y-102438181D01*
X117983000Y-103632000D01*
X119176155Y-103632000D01*
X119297476Y-103402110D01*
X119127645Y-102992076D01*
X118737358Y-102563817D01*
X118212892Y-102317514D01*
X117983000Y-102438181D01*
X117729000Y-102438181D01*
X117499108Y-102317514D01*
X116974642Y-102563817D01*
X116584355Y-102992076D01*
X116534000Y-103113651D01*
X116534000Y-100786000D01*
X183948000Y-100786000D01*
X183948000Y-103700441D01*
X183948000Y-103700441D01*
G37*
X183948000Y-103700441D02*
X183902307Y-103677298D01*
X182550605Y-105029000D01*
X183902307Y-106380702D01*
X183948000Y-106357559D01*
X183948000Y-109272000D01*
X127018844Y-109272000D01*
X127019179Y-108888029D01*
X126861942Y-108507485D01*
X126571046Y-108216081D01*
X126190777Y-108058180D01*
X125779029Y-108057821D01*
X125415567Y-108208000D01*
X121907707Y-108208000D01*
X122251515Y-108065942D01*
X122369663Y-107948000D01*
X123952000Y-107948000D01*
X124242839Y-107890148D01*
X124489401Y-107725401D01*
X126425802Y-105789000D01*
X128455239Y-105789000D01*
X128571954Y-105905919D01*
X128952223Y-106063820D01*
X129363971Y-106064179D01*
X129744515Y-105906942D01*
X130035919Y-105616046D01*
X130102140Y-105456567D01*
X137541626Y-105456567D01*
X137869622Y-106250377D01*
X138476428Y-106858244D01*
X139269664Y-107187624D01*
X140128567Y-107188374D01*
X140922377Y-106860378D01*
X141530244Y-106253572D01*
X141859624Y-105460336D01*
X141859627Y-105456567D01*
X145161626Y-105456567D01*
X145489622Y-106250377D01*
X146096428Y-106858244D01*
X146889664Y-107187624D01*
X147748567Y-107188374D01*
X148542377Y-106860378D01*
X148842972Y-106560307D01*
X173399298Y-106560307D01*
X173562011Y-106881568D01*
X174361464Y-107195556D01*
X175220221Y-107179706D01*
X175939989Y-106881568D01*
X176102702Y-106560307D01*
X181019298Y-106560307D01*
X181182011Y-106881568D01*
X181981464Y-107195556D01*
X182840221Y-107179706D01*
X183559989Y-106881568D01*
X183722702Y-106560307D01*
X182371000Y-105208605D01*
X181019298Y-106560307D01*
X176102702Y-106560307D01*
X174751000Y-105208605D01*
X173399298Y-106560307D01*
X148842972Y-106560307D01*
X149150244Y-106253572D01*
X149479624Y-105460336D01*
X149480340Y-104639464D01*
X172584444Y-104639464D01*
X172600294Y-105498221D01*
X172898432Y-106217989D01*
X173219693Y-106380702D01*
X174571395Y-105029000D01*
X174930605Y-105029000D01*
X176282307Y-106380702D01*
X176603568Y-106217989D01*
X176917556Y-105418536D01*
X176903177Y-104639464D01*
X180204444Y-104639464D01*
X180220294Y-105498221D01*
X180518432Y-106217989D01*
X180839693Y-106380702D01*
X182191395Y-105029000D01*
X180839693Y-103677298D01*
X180518432Y-103840011D01*
X180204444Y-104639464D01*
X176903177Y-104639464D01*
X176901706Y-104559779D01*
X176603568Y-103840011D01*
X176282307Y-103677298D01*
X174930605Y-105029000D01*
X174571395Y-105029000D01*
X173219693Y-103677298D01*
X172898432Y-103840011D01*
X172584444Y-104639464D01*
X149480340Y-104639464D01*
X149480374Y-104601433D01*
X149152378Y-103807623D01*
X148842989Y-103497693D01*
X173399298Y-103497693D01*
X174751000Y-104849395D01*
X176102702Y-103497693D01*
X181019298Y-103497693D01*
X182371000Y-104849395D01*
X183722702Y-103497693D01*
X183559989Y-103176432D01*
X182760536Y-102862444D01*
X181901779Y-102878294D01*
X181182011Y-103176432D01*
X181019298Y-103497693D01*
X176102702Y-103497693D01*
X175939989Y-103176432D01*
X175140536Y-102862444D01*
X174281779Y-102878294D01*
X173562011Y-103176432D01*
X173399298Y-103497693D01*
X148842989Y-103497693D01*
X148545572Y-103199756D01*
X147752336Y-102870376D01*
X146893433Y-102869626D01*
X146099623Y-103197622D01*
X145491756Y-103804428D01*
X145162376Y-104597664D01*
X145161626Y-105456567D01*
X141859627Y-105456567D01*
X141860374Y-104601433D01*
X141532378Y-103807623D01*
X140925572Y-103199756D01*
X140132336Y-102870376D01*
X139273433Y-102869626D01*
X138479623Y-103197622D01*
X137871756Y-103804428D01*
X137542376Y-104597664D01*
X137541626Y-105456567D01*
X130102140Y-105456567D01*
X130193820Y-105235777D01*
X130194179Y-104824029D01*
X130036942Y-104443485D01*
X129746046Y-104152081D01*
X129365777Y-103994180D01*
X128954029Y-103993821D01*
X128573485Y-104151058D01*
X128455337Y-104269000D01*
X126111000Y-104269000D01*
X125820161Y-104326852D01*
X125573599Y-104491599D01*
X123637198Y-106428000D01*
X122369761Y-106428000D01*
X122253046Y-106311081D01*
X121872777Y-106153180D01*
X121461029Y-106152821D01*
X121080485Y-106310058D01*
X120789081Y-106600954D01*
X120631180Y-106981223D01*
X120630821Y-107392971D01*
X120788058Y-107773515D01*
X121078954Y-108064919D01*
X121423532Y-108208000D01*
X120963585Y-108208000D01*
X120602777Y-108058180D01*
X120191029Y-108057821D01*
X119810485Y-108215058D01*
X119519081Y-108505954D01*
X119361180Y-108886223D01*
X119360844Y-109272000D01*
X116534000Y-109272000D01*
X116534000Y-107588149D01*
X116541910Y-107600441D01*
X116754110Y-107745431D01*
X117006000Y-107796440D01*
X118706000Y-107796440D01*
X118941317Y-107752162D01*
X119157441Y-107613090D01*
X119302431Y-107400890D01*
X119353440Y-107149000D01*
X119353440Y-105449000D01*
X119309162Y-105213683D01*
X119170090Y-104997559D01*
X118957890Y-104852569D01*
X118849893Y-104830699D01*
X119127645Y-104525924D01*
X119297476Y-104115890D01*
X119176155Y-103886000D01*
X117983000Y-103886000D01*
X117983000Y-103906000D01*
X117729000Y-103906000D01*
X117729000Y-103886000D01*
X117709000Y-103886000D01*
X117709000Y-103632000D01*
X117729000Y-103632000D01*
X117729000Y-102438181D01*
X117983000Y-102438181D01*
X117983000Y-103632000D01*
X119176155Y-103632000D01*
X119297476Y-103402110D01*
X119127645Y-102992076D01*
X118737358Y-102563817D01*
X118212892Y-102317514D01*
X117983000Y-102438181D01*
X117729000Y-102438181D01*
X117499108Y-102317514D01*
X116974642Y-102563817D01*
X116584355Y-102992076D01*
X116534000Y-103113651D01*
X116534000Y-100786000D01*
X183948000Y-100786000D01*
X183948000Y-103700441D01*
M02*
