G04 #@! TF.FileFunction,Copper,L1,Top,Signal*
%FSLAX46Y46*%
G04 Gerber Fmt 4.6, Leading zero omitted, Abs format (unit mm)*
G04 Created by KiCad (PCBNEW 4.0.7) date 08/13/18 20:30:48*
%MOMM*%
%LPD*%
G01*
G04 APERTURE LIST*
%ADD10C,0.100000*%
%ADD11R,0.800000X0.750000*%
%ADD12R,1.200000X1.200000*%
%ADD13R,1.700000X1.700000*%
%ADD14O,1.700000X1.700000*%
%ADD15R,0.800000X2.000000*%
%ADD16R,0.900000X0.500000*%
%ADD17R,1.200000X2.500000*%
%ADD18R,1.060000X0.650000*%
%ADD19C,3.048000*%
%ADD20C,0.800000*%
%ADD21C,0.500000*%
%ADD22C,0.250000*%
%ADD23C,0.750000*%
G04 APERTURE END LIST*
D10*
D11*
X123710000Y-103759000D03*
X125210000Y-103759000D03*
X123456000Y-108839000D03*
X124956000Y-108839000D03*
D12*
X120650000Y-104732000D03*
X120650000Y-102532000D03*
D13*
X117856000Y-106299000D03*
D14*
X117856000Y-103759000D03*
D15*
X123206000Y-101854000D03*
X125206000Y-101854000D03*
D16*
X127000000Y-108700000D03*
X127000000Y-107200000D03*
X127000000Y-105398000D03*
X127000000Y-103898000D03*
X120396000Y-107938000D03*
X120396000Y-106438000D03*
D17*
X135215000Y-102279000D03*
X130215000Y-102279000D03*
X132715000Y-102279000D03*
X130215000Y-107779000D03*
X132715000Y-107779000D03*
X135215000Y-107779000D03*
D18*
X123106000Y-105349000D03*
X123106000Y-106299000D03*
X123106000Y-107249000D03*
X125306000Y-107249000D03*
X125306000Y-105349000D03*
X125306000Y-106299000D03*
D19*
X182371000Y-105029000D03*
X174751000Y-105029000D03*
X147321000Y-105029000D03*
X139701000Y-105029000D03*
D20*
X122174000Y-108204000D03*
X121666000Y-105918000D03*
X122809000Y-103759000D03*
X127000000Y-102870000D03*
X121666000Y-107188000D03*
X129159000Y-105029000D03*
X120396000Y-109093000D03*
X125984000Y-109093000D03*
D21*
X122809000Y-108839000D02*
X122174000Y-108204000D01*
X122809000Y-108839000D02*
X123456000Y-108839000D01*
X123106000Y-106299000D02*
X122047000Y-106299000D01*
X122047000Y-106299000D02*
X121666000Y-105918000D01*
X123710000Y-103759000D02*
X122809000Y-103759000D01*
D22*
X120650000Y-102532000D02*
X119083000Y-102532000D01*
X119083000Y-102532000D02*
X117856000Y-103759000D01*
X127000000Y-103898000D02*
X127000000Y-102870000D01*
D23*
X139701000Y-105029000D02*
X147321000Y-105029000D01*
X132715000Y-102279000D02*
X132715000Y-105029000D01*
X132715000Y-105029000D02*
X139701000Y-105029000D01*
D22*
X130215000Y-102279000D02*
X130215000Y-103973000D01*
X121727000Y-107249000D02*
X121666000Y-107188000D01*
X121727000Y-107249000D02*
X123106000Y-107249000D01*
X130215000Y-103973000D02*
X129159000Y-105029000D01*
D21*
X125306000Y-105349000D02*
X125306000Y-103855000D01*
X125306000Y-103855000D02*
X125210000Y-103759000D01*
X125206000Y-101854000D02*
X125206000Y-103755000D01*
X125206000Y-103755000D02*
X125210000Y-103759000D01*
D23*
X130215000Y-102279000D02*
X129203000Y-102279000D01*
X128778000Y-101854000D02*
X125206000Y-101854000D01*
X129203000Y-102279000D02*
X128778000Y-101854000D01*
D22*
X127000000Y-108700000D02*
X126377000Y-108700000D01*
X126377000Y-108700000D02*
X125984000Y-109093000D01*
X120396000Y-107938000D02*
X120396000Y-109093000D01*
D21*
X124956000Y-108839000D02*
X125730000Y-108839000D01*
X117856000Y-107950000D02*
X117856000Y-106299000D01*
X118999000Y-109093000D02*
X117856000Y-107950000D01*
X120396000Y-109093000D02*
X118999000Y-109093000D01*
X125730000Y-108839000D02*
X125984000Y-109093000D01*
X125306000Y-106299000D02*
X124333000Y-106299000D01*
X124206000Y-107950000D02*
X124956000Y-108700000D01*
X124206000Y-106426000D02*
X124206000Y-107950000D01*
X124333000Y-106299000D02*
X124206000Y-106426000D01*
X124956000Y-108700000D02*
X124956000Y-108839000D01*
D22*
X120650000Y-104732000D02*
X120650000Y-105918000D01*
X120396000Y-106172000D02*
X120396000Y-106438000D01*
X120650000Y-105918000D02*
X120396000Y-106172000D01*
D21*
X123206000Y-101854000D02*
X122682000Y-101854000D01*
X121920000Y-104902000D02*
X122875000Y-105349000D01*
X121920000Y-102108000D02*
X121920000Y-104902000D01*
X122682000Y-101854000D02*
X121920000Y-102108000D01*
X122875000Y-105349000D02*
X123106000Y-105349000D01*
D22*
X127000000Y-105398000D02*
X127000000Y-107200000D01*
X125306000Y-107249000D02*
X126951000Y-107249000D01*
X126951000Y-107249000D02*
X127000000Y-107200000D01*
M02*
